<svg width="855" height="313" viewBox="0 0 855 313" fill="none" xmlns="http://www.w3.org/2000/svg">
<g clip-path="url(#clip0_16065_16452)">
<path d="M761.148 166.93C757.285 165.204 753.495 163.332 749.76 161.368C714.089 181.678 668.482 207.706 667.569 208.619C667.569 208.619 690.226 244.691 691.669 246.134C692.582 247.048 748.774 206.765 789.184 177.569C779.897 173.962 770.28 171.03 761.148 166.93Z" fill="#4B80FE"/>
<path d="M761.732 165.898C771.066 170.016 780.91 173.002 790.381 176.738C812.627 160.656 829.832 148.144 829.832 148.144L791.805 137.459C791.805 137.459 773.541 147.852 750.956 160.683C754.491 162.528 758.08 164.281 761.732 165.898Z" fill="#87AAFE"/>
<path d="M696.172 118.538L718.564 179.158L762.326 195.213L706.884 93.9443L696.172 118.538Z" fill="#3166E4"/>
<path d="M764.709 210.107H732.281L761.148 260.526L805.147 279.074L764.709 210.107Z" fill="#3166E4"/>
<path d="M805.147 279.075L779.358 235.039L668.857 299.778L647.14 262.737L660.82 42.4837L710.445 13.3882L799.768 165.77L829.832 148.145L854.827 190.783L824.764 208.4L850.59 252.436L805.147 279.075ZM704.957 108.172L702.217 109.816L694.573 227.422L754.335 192.391L704.957 108.172Z" fill="#5F8EFE"/>
<path d="M610.465 252.654L647.177 262.736L668.893 299.777L630.099 289.951L610.465 252.654Z" fill="#4B80FE"/>
<path d="M610.465 252.655L647.177 262.737L660.811 42.4838L627.131 34.4199L610.465 252.655Z" fill="#3166E4"/>
<path d="M627.131 34.4196L660.811 42.4835L710.445 13.3879L676.336 3.47021L627.131 34.4196Z" fill="#87AAFE"/>
<path d="M393.791 273.22C396.613 265.832 399.216 258.335 402.257 251.029C400.174 250.871 398.101 250.6 396.047 250.216C386.798 248.602 378.177 244.454 371.143 238.235C364.135 231.838 358.729 223.883 355.363 215.011C351.655 205.641 349.5 194.987 348.897 183.048C347.985 157.561 352.829 132.196 363.07 108.839C367.483 98.8925 373.482 89.7291 380.833 81.7067C387.221 74.7073 395.163 69.3052 404.02 65.9352C412.013 63.1804 420.546 62.3599 428.919 63.5409C437.291 64.722 445.264 67.871 452.183 72.7297C455.051 67.0037 458.138 61.3873 461.069 55.7801C464.539 49.15 467.763 42.4013 470.841 35.5886C472.156 32.6753 473.297 29.6708 474.494 26.7028C464.091 20.8578 452.79 16.781 441.051 14.639C423.535 11.2905 407.052 11.9206 391.6 16.5294C376.168 21.1304 361.924 29.0365 349.856 39.6981C337.472 50.529 326.97 64.124 318.349 80.483C309.729 96.842 303.491 115.107 299.637 135.277C295.783 155.441 294.849 174.716 296.834 193.103C298.818 211.489 303.57 228 311.089 242.636C318.378 256.997 328.709 269.596 341.363 279.558C353.15 288.843 367.046 295.26 383.052 298.809C386.833 290.371 390.504 281.878 393.791 273.22Z" fill="#3166E4"/>
<path d="M530.831 121.085C528.84 102.705 524.091 86.1937 516.585 71.5515C509.287 57.1965 498.958 44.5986 486.311 34.6296C482.895 31.9533 479.301 29.5124 475.553 27.3237C474.366 30.2917 473.234 33.2871 471.9 36.1912C468.759 42.9765 465.608 49.7527 462.129 56.3828C459.161 62.0174 456.056 67.6794 453.17 73.4419C454.193 74.2273 455.197 75.0401 456.165 75.9076C463.192 82.3432 468.655 90.2989 472.138 99.1676C476.135 109.321 478.404 120.072 478.85 130.975C479.751 156.462 474.907 181.824 464.677 205.185C459.709 216.064 453.706 225.16 446.668 232.472C440.165 239.435 432.156 244.817 423.252 248.207C416.94 250.548 410.211 251.556 403.49 251.166C400.12 259.157 397.28 267.385 394.212 275.467C391.143 283.549 387.764 291.311 384.248 299.11C385.034 299.284 385.828 299.448 386.623 299.604C404.126 302.946 420.607 302.31 436.065 297.695C451.499 293.105 465.745 285.201 477.809 274.535C490.192 263.705 500.697 250.107 509.324 233.741C517.951 217.376 524.189 199.112 528.037 178.948C531.836 159.906 532.778 140.404 530.831 121.085Z" fill="#3166E4"/>
<path d="M417.535 310.06C400.001 306.718 384.915 300.054 372.276 290.07C359.62 280.109 349.289 267.509 342.002 253.148C334.483 238.536 329.734 222.025 327.756 203.614C325.777 185.203 326.709 165.928 330.55 145.788C334.404 125.63 340.641 107.366 349.262 90.9943C357.883 74.6231 368.385 61.0434 380.769 50.2551C392.84 39.5961 407.088 31.6932 422.522 27.0955C437.974 22.4807 454.454 21.8475 471.964 25.196C489.474 28.5445 504.573 35.1928 517.26 45.141C529.912 55.1053 540.242 67.7044 547.534 82.0629C555.053 96.6746 559.805 113.186 561.79 131.597C563.774 150.007 562.843 169.283 558.995 189.422C555.141 209.587 548.901 227.851 540.274 244.216C531.647 260.581 521.145 274.179 508.767 285.01C496.697 295.671 482.449 303.574 467.014 308.17C451.538 312.785 435.045 313.415 417.535 310.06ZM426.969 260.746C436.043 262.607 445.456 261.908 454.156 258.728C463.068 255.327 471.081 249.929 477.58 242.947C484.612 235.641 490.612 226.545 495.58 215.66C505.823 192.3 510.667 166.931 509.754 141.441C509.315 130.541 507.05 119.792 503.05 109.643C499.577 100.785 494.13 92.8367 487.124 86.4008C480.2 80.2491 471.706 76.1393 462.585 74.5288C453.386 72.6162 443.836 73.2895 434.996 76.474C426.108 79.8417 418.134 85.2502 411.718 92.2637C404.376 100.269 398.383 109.414 393.974 119.341C383.737 142.703 378.89 168.069 379.792 193.559C380.4 205.492 382.559 216.147 386.266 225.522C389.635 234.388 395.037 242.339 402.038 248.737C409.075 254.968 417.708 259.117 426.969 260.718V260.746Z" fill="#5F8EFE"/>
<path d="M194.333 199.925C191.045 202.966 187.429 205.797 184.47 209.185L141.548 298.928L173.511 257.641L207.474 187.432C203.109 191.633 198.771 195.824 194.333 199.925Z" fill="#3166E4"/>
<path d="M168.854 185.194C171.968 180.929 174.963 175.925 178.516 171.496L103.32 134.784L31.9784 141.925L156.981 199.568C161.1 194.92 165.201 190.189 168.854 185.194Z" fill="#3166E4"/>
<path d="M179.584 172.043C175.584 177.048 172.342 182.929 168.506 187.568C165.064 191.76 161.602 195.943 158.068 200.061L214.899 226.271L235.529 199.322L179.584 172.043Z" fill="#87AAFE"/>
<path d="M94.0051 276.18L116.051 230.162L0.581543 174.866L19.1293 136.099L209.273 24.146L261.163 48.9859L184.89 208.299L216.314 223.349L194.981 267.924L163.557 252.883L141.511 298.928L94.0051 276.18ZM179.548 97.5059L176.625 96.0995L74.9094 155.651L137.356 185.569L179.548 97.5059Z" fill="#5F8EFE"/>
<path d="M216.314 223.349L235.529 199.358L220.451 232.792L194.269 269.367L216.314 223.349Z" fill="#3166E4"/>
<path d="M208.963 186.098L283.939 21.7168L261.163 48.9768L184.89 208.299C187.018 206.253 207.748 187.313 208.963 186.098Z" fill="#3772FE"/>
<path d="M19.1293 136.135L53.0102 106.638L238.807 0L209.273 24.1458L19.1293 136.135Z" fill="#3166E4"/>
<path d="M209.273 24.1458L261.163 48.9857L283.939 21.7258L238.807 0L209.273 24.1458Z" fill="#87AAFE"/>
</g>
<defs>
<clipPath id="clip0_16065_16452">
<rect width="854.237" height="312.17" fill="white" transform="translate(0.581543)"/>
</clipPath>
</defs>
</svg>
