<svg width="19" height="15" viewBox="0 0 19 15" fill="none" xmlns="http://www.w3.org/2000/svg">
<path d="M18.3459 11.2899L11.8357 1.24925C11.5724 0.866271 11.2097 0.551087 10.781 0.332762C10.3523 0.114438 9.87142 0 9.38265 0C8.89388 0 8.41298 0.114438 7.98428 0.332762C7.55558 0.551087 7.19289 0.866271 6.92964 1.24925L0.419418 11.2899C0.189441 11.6464 0.0644441 12.0529 0.0569943 12.4686C0.0495445 12.8843 0.159904 13.2945 0.376978 13.6579C0.627948 14.067 0.991214 14.4068 1.42965 14.6426C1.86809 14.8784 2.36597 15.0016 2.87242 14.9998H15.8929C16.396 15.0048 16.8916 14.8863 17.3298 14.6563C17.7679 14.4262 18.133 14.0927 18.3883 13.6895C18.6118 13.3223 18.7256 12.9062 18.7182 12.4843C18.7107 12.0624 18.5822 11.6501 18.3459 11.2899ZM9.38265 11.8424C9.21477 11.8424 9.05067 11.7961 8.91108 11.7094C8.7715 11.6227 8.66271 11.4994 8.59847 11.3551C8.53422 11.2109 8.51741 11.0522 8.55017 10.8991C8.58292 10.7459 8.66376 10.6053 8.78246 10.4949C8.90117 10.3845 9.05241 10.3093 9.21706 10.2789C9.38171 10.2484 9.55237 10.264 9.70747 10.3238C9.86256 10.3835 9.99512 10.4847 10.0884 10.6145C10.1817 10.7443 10.2314 10.8969 10.2314 11.0531C10.2314 11.2624 10.142 11.4632 9.98283 11.6112C9.82365 11.7593 9.60776 11.8424 9.38265 11.8424ZM10.2314 8.68499C10.2314 8.89435 10.142 9.09512 9.98283 9.24315C9.82365 9.39119 9.60776 9.47435 9.38265 9.47435C9.15753 9.47435 8.94164 9.39119 8.78246 9.24315C8.62328 9.09512 8.53386 8.89435 8.53386 8.68499V5.52757C8.53386 5.31822 8.62328 5.11744 8.78246 4.96941C8.94164 4.82138 9.15753 4.73821 9.38265 4.73821C9.60776 4.73821 9.82365 4.82138 9.98283 4.96941C10.142 5.11744 10.2314 5.31822 10.2314 5.52757V8.68499Z" fill="#EB5757"/>
</svg>
