<svg width="156" height="537" viewBox="0 0 156 537" fill="none" xmlns="http://www.w3.org/2000/svg">
<rect x="-308" y="73.9116" width="463.328" height="462.348" rx="19.591" fill="#F6F8FC"/>
<rect x="16.2344" y="222.803" width="104.812" height="62.6913" rx="9.79551" fill="#E2E8F0"/>
<rect x="-212.006" y="324.677" width="270.356" height="162.605" rx="19.591" fill="#27AE60" fill-opacity="0.1"/>
<rect x="-212.006" y="324.677" width="270.356" height="112.648" rx="19.591" fill="#F6F8FC"/>
<circle opacity="0.2" cx="68.9449" cy="60.9449" r="60.9449" fill="#AFC7FF"/>
<circle opacity="0.5" cx="68.6424" cy="61.2479" r="44.2684" fill="#AFC7FF"/>
<circle cx="70.7657" cy="61.5513" r="30.0176" fill="#3772FA"/>
<path d="M62.8091 64.964C61.5326 64.964 60.4369 64.6409 59.5221 63.9949C58.6125 63.3437 57.9122 62.4056 57.4212 61.1808C56.9353 59.9507 56.6924 58.47 56.6924 56.7386C56.6976 55.0072 56.9431 53.5342 57.4289 52.3197C57.9199 51.0999 58.6202 50.1696 59.5298 49.5288C60.4446 48.8879 61.5377 48.5675 62.8091 48.5675C64.0806 48.5675 65.1737 48.8879 66.0884 49.5288C67.0032 50.1696 67.7035 51.0999 68.1894 52.3197C68.6804 53.5394 68.9259 55.0124 68.9259 56.7386C68.9259 58.4751 68.6804 59.9584 68.1894 61.1885C67.7035 62.4134 67.0032 63.3489 66.0884 63.9949C65.1788 64.6409 64.0857 64.964 62.8091 64.964ZM62.8091 62.5374C63.8015 62.5374 64.5845 62.049 65.1581 61.0722C65.737 60.0902 66.0264 58.6457 66.0264 56.7386C66.0264 55.4775 65.8946 54.418 65.6311 53.5601C65.3675 52.7021 64.9953 52.0561 64.5147 51.6219C64.034 51.1826 63.4655 50.963 62.8091 50.963C61.822 50.963 61.0416 51.454 60.4679 52.4359C59.8942 53.4128 59.6048 54.847 59.5996 56.7386C59.5944 58.0048 59.7211 59.0695 59.9795 59.9326C60.2431 60.7957 60.6152 61.4469 61.0958 61.8862C61.5765 62.3204 62.1476 62.5374 62.8091 62.5374ZM79.554 61.6847V60.8474C79.554 60.2324 79.6832 59.6664 79.9416 59.1496C80.2052 58.6328 80.5876 58.2167 81.089 57.9015C81.5903 57.5862 82.1976 57.4286 82.9108 57.4286C83.6447 57.4286 84.2597 57.5862 84.7559 57.9015C85.2521 58.2116 85.6268 58.625 85.88 59.1419C86.1384 59.6587 86.2676 60.2272 86.2676 60.8474V61.6847C86.2676 62.2997 86.1384 62.8656 85.88 63.3825C85.6216 63.8993 85.2417 64.3153 84.7404 64.6306C84.2442 64.9459 83.6344 65.1035 82.9108 65.1035C82.1872 65.1035 81.5748 64.9459 81.0735 64.6306C80.5721 64.3153 80.1923 63.8993 79.9338 63.3825C79.6806 62.8656 79.554 62.2997 79.554 61.6847ZM81.5774 60.8474V61.6847C81.5774 62.093 81.6756 62.4677 81.872 62.8088C82.0684 63.1499 82.4146 63.3204 82.9108 63.3204C83.4121 63.3204 83.7558 63.1525 83.9419 62.8165C84.1331 62.4754 84.2287 62.0981 84.2287 61.6847V60.8474C84.2287 60.4339 84.1383 60.0566 83.9574 59.7155C83.7765 59.3693 83.4276 59.1961 82.9108 59.1961C82.425 59.1961 82.0813 59.3693 81.8797 59.7155C81.6782 60.0566 81.5774 60.4339 81.5774 60.8474ZM71.4836 52.5988V51.7615C71.4836 51.1413 71.6154 50.5728 71.879 50.0559C72.1426 49.5391 72.5251 49.1256 73.0264 48.8155C73.5277 48.5003 74.135 48.3426 74.8482 48.3426C75.5769 48.3426 76.1894 48.5003 76.6856 48.8155C77.1869 49.1256 77.5642 49.5391 77.8174 50.0559C78.0707 50.5728 78.1973 51.1413 78.1973 51.7615V52.5988C78.1973 53.219 78.0681 53.7875 77.8097 54.3043C77.5564 54.816 77.1791 55.2268 76.6778 55.5369C76.1765 55.847 75.5666 56.0021 74.8482 56.0021C74.1195 56.0021 73.5044 55.847 73.0031 55.5369C72.507 55.2268 72.1297 54.8134 71.8713 54.2965C71.6128 53.7797 71.4836 53.2138 71.4836 52.5988ZM73.5225 51.7615V52.5988C73.5225 53.0122 73.6182 53.3895 73.8094 53.7306C74.0058 54.0666 74.3521 54.2345 74.8482 54.2345C75.3444 54.2345 75.6855 54.0666 75.8715 53.7306C76.0628 53.3895 76.1584 53.0122 76.1584 52.5988V51.7615C76.1584 51.348 76.0679 50.9707 75.887 50.6296C75.7062 50.2833 75.3599 50.1102 74.8482 50.1102C74.3572 50.1102 74.0135 50.2833 73.8171 50.6296C73.6207 50.9759 73.5225 51.3532 73.5225 51.7615ZM72.3674 64.6616L83.2829 48.7845H85.221L74.3055 64.6616H72.3674Z" fill="white"/>
<path d="M67.0035 70.9323V72.0177H63.4839V70.9323H67.0035ZM64.3638 76.8862V70.3703C64.3638 69.9697 64.4465 69.6364 64.6119 69.3702C64.7798 69.104 65.0047 68.905 65.2863 68.7733C65.568 68.6415 65.8807 68.5756 66.2244 68.5756C66.4673 68.5756 66.6831 68.5949 66.8717 68.6337C67.0604 68.6725 67.1999 68.7074 67.2903 68.7384L67.0113 69.8237C66.9518 69.8056 66.8769 69.7875 66.7864 69.7694C66.696 69.7488 66.5952 69.7384 66.4841 69.7384C66.2231 69.7384 66.0383 69.8017 65.9298 69.9284C65.8238 70.0524 65.7709 70.2307 65.7709 70.4633V76.8862H64.3638ZM70.5144 77.0025C69.9175 77.0025 69.4019 76.8785 68.9678 76.6304C68.5362 76.3797 68.2042 76.0257 67.9716 75.5683C67.739 75.1083 67.6227 74.5669 67.6227 73.9442C67.6227 73.3317 67.739 72.7942 67.9716 72.3316C68.2068 71.8665 68.5349 71.5047 68.9562 71.2463C69.3774 70.9853 69.8722 70.8548 70.4408 70.8548C70.8077 70.8548 71.154 70.9142 71.4796 71.0331C71.8078 71.1494 72.0972 71.3303 72.3479 71.5758C72.6011 71.8213 72.8001 72.134 72.9448 72.5138C73.0895 72.8911 73.1619 73.3408 73.1619 73.8628V74.293H68.2817V73.3472H71.8168C71.8142 73.0785 71.7561 72.8394 71.6424 72.6301C71.5287 72.4182 71.3698 72.2515 71.1656 72.1301C70.9641 72.0086 70.7289 71.9479 70.4601 71.9479C70.1733 71.9479 69.9213 72.0177 69.7043 72.1572C69.4872 72.2942 69.3179 72.4751 69.1965 72.6999C69.0776 72.9221 69.0169 73.1663 69.0143 73.4325V74.2581C69.0143 74.6044 69.0776 74.9016 69.2042 75.1497C69.3309 75.3952 69.5079 75.5838 69.7353 75.7156C69.9627 75.8448 70.2289 75.9094 70.5338 75.9094C70.7379 75.9094 70.9227 75.881 71.0881 75.8241C71.2535 75.7647 71.3969 75.6781 71.5184 75.5644C71.6398 75.4507 71.7316 75.3099 71.7936 75.1419L73.1037 75.2892C73.0211 75.6355 72.8634 75.9378 72.6308 76.1963C72.4009 76.4521 72.1063 76.6511 71.7471 76.7932C71.3879 76.9327 70.977 77.0025 70.5144 77.0025ZM76.9848 77.0025C76.3879 77.0025 75.8724 76.8785 75.4382 76.6304C75.0067 76.3797 74.6746 76.0257 74.442 75.5683C74.2094 75.1083 74.0932 74.5669 74.0932 73.9442C74.0932 73.3317 74.2094 72.7942 74.442 72.3316C74.6772 71.8665 75.0054 71.5047 75.4266 71.2463C75.8478 70.9853 76.3427 70.8548 76.9112 70.8548C77.2781 70.8548 77.6244 70.9142 77.95 71.0331C78.2782 71.1494 78.5676 71.3303 78.8183 71.5758C79.0715 71.8213 79.2705 72.134 79.4152 72.5138C79.56 72.8911 79.6323 73.3408 79.6323 73.8628V74.293H74.7521V73.3472H78.2873C78.2847 73.0785 78.2265 72.8394 78.1128 72.6301C77.9991 72.4182 77.8402 72.2515 77.636 72.1301C77.4345 72.0086 77.1993 71.9479 76.9306 71.9479C76.6437 71.9479 76.3918 72.0177 76.1747 72.1572C75.9576 72.2942 75.7884 72.4751 75.6669 72.6999C75.548 72.9221 75.4873 73.1663 75.4847 73.4325V74.2581C75.4847 74.6044 75.548 74.9016 75.6747 75.1497C75.8013 75.3952 75.9783 75.5838 76.2057 75.7156C76.4331 75.8448 76.6993 75.9094 77.0042 75.9094C77.2084 75.9094 77.3931 75.881 77.5585 75.8241C77.7239 75.7647 77.8673 75.6781 77.9888 75.5644C78.1102 75.4507 78.202 75.3099 78.264 75.1419L79.5742 75.2892C79.4915 75.6355 79.3338 75.9378 79.1013 76.1963C78.8713 76.4521 78.5767 76.6511 78.2175 76.7932C77.8583 76.9327 77.4474 77.0025 76.9848 77.0025Z" fill="white"/>
</svg>
