<svg width="17" height="18" viewBox="0 0 17 18" fill="none" xmlns="http://www.w3.org/2000/svg">
<path d="M8.5 1.23975C7.02901 1.23975 5.59104 1.67595 4.36795 2.49319C3.14486 3.31043 2.19158 4.47201 1.62865 5.83104C1.06572 7.19006 0.918435 8.6855 1.20541 10.1282C1.49239 11.571 2.20074 12.8962 3.2409 13.9364C4.28105 14.9765 5.60629 15.6849 7.04902 15.9718C8.49175 16.2588 9.98719 16.1115 11.3462 15.5486C12.7052 14.9857 13.8668 14.0324 14.6841 12.8093C15.5013 11.5862 15.9375 10.1482 15.9375 8.67725C15.9375 6.7047 15.1539 4.81294 13.7591 3.41814C12.3643 2.02334 10.4726 1.23975 8.5 1.23975ZM8.5 4.42725C8.65761 4.42725 8.81168 4.47398 8.94272 4.56154C9.07377 4.64911 9.17591 4.77356 9.23622 4.91917C9.29653 5.06478 9.31232 5.22501 9.28157 5.37958C9.25082 5.53416 9.17493 5.67615 9.06348 5.7876C8.95204 5.89904 8.81005 5.97494 8.65547 6.00568C8.50089 6.03643 8.34066 6.02065 8.19505 5.96034C8.04944 5.90002 7.92499 5.79789 7.83743 5.66684C7.74987 5.5358 7.70313 5.38173 7.70313 5.22412C7.70313 5.01278 7.78709 4.81009 7.93653 4.66065C8.08597 4.5112 8.28866 4.42725 8.5 4.42725ZM10.625 12.9937H6.375V11.7983H7.90235V8.74365H6.90625V7.54834H9.09766V11.7983H10.625V12.9937Z" fill="#EB5757"/>
</svg>
